<svg aria-hidden="true" style="position: absolute; width: 0; height: 0; overflow: hidden;" version="1.1" xmlns="http://www.w3.org/2000/svg" xmlns:xlink="http://www.w3.org/1999/xlink">
    <defs>
        <symbol id="icon-arrow" viewBox="0 0 48 32">
            <path fill="#f9b50c" style="fill: var(--color1, #f9b50c)" d="M48 16c0 8.837-7.163 16-16 16s-16-7.163-16-16c0-8.837 7.163-16 16-16s16 7.163 16 16z"></path>
            <path fill="none" stroke="#fff" style="stroke: var(--color2, #fff)" stroke-linejoin="miter" stroke-linecap="butt" stroke-miterlimit="4" stroke-width="2.4" d="M25.6 4.8c0 1.187 1.173 2.96 2.36 4.448 1.526 1.92 3.35 3.595 5.442 4.874 1.568 0.958 3.469 1.878 4.998 1.878M38.4 16c-1.53 0-3.432 0.92-4.998 1.878-2.091 1.28-3.915 2.955-5.442 4.872-1.187 1.49-2.36 3.266-2.36 4.45M38.4 16h-38.4"></path>
        </symbol>
    </defs>
</svg>
